# xmcd CD database file
#
# Track frame offsets:
#	150
#	22112
#	40912
#	58162
#	79575
#	102200
#	121100
#	139275
#	154825
#	173150
#	195275
#	216300
#	239237
#	255675
#
# Disc length: 3687 seconds
#
# Revision: 2
# Processed by: cddbd v1.4PL0 Copyright (c) Steve Scherf et al.
# Submitted via: CDex 1.40Beta9
#
DISCID=c60e650e
DTITLE=Danny Summer  - Greatest Hits
DYEAR=2000
DGENRE=Blues
TTITLE0=結 他 低 泣 時 (1988)
TTITLE1=我 是 捨 不 得 你 (1989)
TTITLE2=路 中 情 (1988)
TTITLE3=Wild World (1989)
TTITLE4=風 中 希 冀(1989)
TTITLE5=綠 印 淚 (1988)
TTITLE6=平 凡 亦 快 樂 (1988)
TTITLE7=媽 媽 我 沒 有 做 錯 (1989)
TTITLE8=閉 著 眼 睛 再 見 面 (1989)
TTITLE9=你 漂 亮 的 固 執 (1988)
TTITLE10=珍 惜 這 地 球 (1988)
TTITLE11=讓 我 孤 單 過 這 一 晚 (1989)
TTITLE12=The Fool (1990)
TTITLE13=Blue Guitar (1990)
EXTD=YEAR: 2000 ID3G: 0
EXTT0=
EXTT1=
EXTT2=
EXTT3=
EXTT4=
EXTT5=
EXTT6=
EXTT7=
EXTT8=
EXTT9=
EXTT10=
EXTT11=
EXTT12=
EXTT13=
PLAYORDER=
